<svg width="1280" height="720" viewBox="0 0 1280 720" fill="none" xmlns="http://www.w3.org/2000/svg">
  <defs>
    <linearGradient id="bg" x1="140" y1="70" x2="1120" y2="650" gradientUnits="userSpaceOnUse">
      <stop stop-color="#FFF7E3"/>
      <stop offset="1" stop-color="#F5E9C9"/>
    </linearGradient>
    <linearGradient id="blob" x1="202" y1="112" x2="1110" y2="626" gradientUnits="userSpaceOnUse">
      <stop stop-color="#E3F7DB"/>
      <stop offset="1" stop-color="#CBE6C1"/>
    </linearGradient>
    <linearGradient id="coin" x1="945" y1="93" x2="1067" y2="215" gradientUnits="userSpaceOnUse">
      <stop stop-color="#FFE08A"/>
      <stop offset="1" stop-color="#E2B23F"/>
    </linearGradient>
    <filter id="shadow" x="169" y="89" width="944" height="542" filterUnits="userSpaceOnUse" color-interpolation-filters="sRGB">
      <feFlood flood-opacity="0" result="BackgroundImageFix"/>
      <feColorMatrix in="SourceAlpha" type="matrix" values="0 0 0 0 0 0 0 0 0 0 0 0 0 0 0 0 0 0 127 0" result="hardAlpha"/>
      <feOffset dy="14"/>
      <feGaussianBlur stdDeviation="18"/>
      <feColorMatrix type="matrix" values="0 0 0 0 0.282353 0 0 0 0 0.392157 0 0 0 0 0.203922 0 0 0 0.18 0"/>
      <feBlend mode="normal" in2="BackgroundImageFix" result="effect1_dropShadow_1_1"/>
      <feBlend mode="normal" in="SourceGraphic" in2="effect1_dropShadow_1_1" result="shape"/>
    </filter>
  </defs>

  <rect width="1280" height="720" rx="36" fill="url(#bg)"/>
  <path d="M1049 118C1112 170 1136 259 1100 331C1064 403 967 456 857 459C747 462 626 414 510 401C394 388 284 411 224 365C164 319 154 205 223 149C292 93 438 96 580 95C722 94 986 66 1049 118Z" fill="url(#blob)"/>

  <circle cx="1007" cy="154" r="64" fill="url(#coin)"/>
  <circle cx="1007" cy="154" r="53" stroke="#9B7421" stroke-width="4" stroke-dasharray="8 10"/>
  <text x="1007" y="169" text-anchor="middle" font-family="Georgia, 'Times New Roman', serif" font-size="46" font-weight="700" fill="#6F5315">$</text>

  <g filter="url(#shadow)">
    <rect x="205" y="112" width="872" height="470" rx="34" fill="#FFFDF8"/>
  </g>

  <path d="M245 498C326 440 425 410 530 410H760C864 410 962 440 1041 498V548H245V498Z" fill="#1F6B4F"/>
  <rect x="245" y="548" width="796" height="34" rx="10" fill="#154B38"/>

  <g>
    <rect x="319" y="244" width="194" height="170" rx="22" fill="#FFFFFF"/>
    <rect x="343" y="270" width="146" height="18" rx="9" fill="#E9F2E4"/>
    <rect x="343" y="302" width="112" height="14" rx="7" fill="#D6E7D0"/>
    <rect x="343" y="331" width="128" height="14" rx="7" fill="#D6E7D0"/>
    <rect x="343" y="360" width="94" height="14" rx="7" fill="#D6E7D0"/>
    <circle cx="470" cy="361" r="18" fill="#F3C453"/>
    <path d="M470 349V373" stroke="#6F5315" stroke-width="4" stroke-linecap="round"/>
    <path d="M461 354C463 351 466 349 470 349C474 349 478 351 479 355C480 359 478 362 470 365C463 367 460 370 461 374C462 378 466 381 470 381C474 381 477 380 480 377" stroke="#6F5315" stroke-width="4" stroke-linecap="round"/>
  </g>

  <g>
    <path d="M655 224L718 256L655 288L592 256L655 224Z" fill="#C79A31"/>
    <path d="M655 288V388" stroke="#8C6A1B" stroke-width="8" stroke-linecap="round"/>
    <path d="M620 284C606 309 592 323 577 338H663C648 323 634 309 620 284Z" fill="#F2D27D"/>
    <path d="M690 284C676 309 662 323 647 338H733C718 323 704 309 690 284Z" fill="#F2D27D"/>
    <path d="M592 256H718" stroke="#8C6A1B" stroke-width="8" stroke-linecap="round"/>
    <circle cx="620" cy="349" r="31" fill="#F8E7B3" stroke="#8C6A1B" stroke-width="6"/>
    <circle cx="690" cy="349" r="31" fill="#F8E7B3" stroke="#8C6A1B" stroke-width="6"/>
  </g>

  <g>
    <ellipse cx="881" cy="390" rx="48" ry="20" fill="#D7E8C8"/>
    <path d="M881 394C881 360 893 336 917 316" stroke="#2C8B5C" stroke-width="8" stroke-linecap="round"/>
    <path d="M881 394C880 360 867 336 845 318" stroke="#2C8B5C" stroke-width="8" stroke-linecap="round"/>
    <path d="M896 338C881 331 865 333 853 348C869 353 884 351 896 338Z" fill="#69B97E"/>
    <path d="M868 336C881 329 897 330 910 344C894 350 879 349 868 336Z" fill="#7FD18F"/>
  </g>

  <g>
    <circle cx="288" cy="173" r="14" fill="#F3C453"/>
    <circle cx="253" cy="206" r="10" fill="#69B97E"/>
    <circle cx="100" cy="0" r="12" transform="translate(1099 273)" fill="#F3C453"/>
  </g>

  <text x="640" y="190" text-anchor="middle" font-family="Georgia, 'Times New Roman', serif" font-size="66" font-weight="700" fill="#143726">Economy with</text>
  <text x="640" y="262" text-anchor="middle" font-family="Georgia, 'Times New Roman', serif" font-size="82" font-weight="700" fill="#143726">a Conscience</text>
  <text x="640" y="316" text-anchor="middle" font-family="Arial, Helvetica, sans-serif" font-size="28" font-weight="700" letter-spacing="3" fill="#8C6A1B">ISLAMIC ECONOMICS</text>
  <text x="640" y="352" text-anchor="middle" font-family="Arial, Helvetica, sans-serif" font-size="26" fill="#47634F">Work. Trust. Moderation. Fairness.</text>
</svg>
